<?xml version="1.0" encoding="UTF-8" standalone="no"?>
<svg width="38px" height="38px" viewBox="0 0 20 20" version="1.1" xmlns="http://www.w3.org/2000/svg" xmlns:xlink="http://www.w3.org/1999/xlink" xmlns:sketch="http://www.bohemiancoding.com/sketch/ns">
    <title>checkmark</title>
    <defs></defs>
    <g id="Page-1" stroke="none" stroke-width="1" fill="none" fill-rule="evenodd" sketch:type="MSPage">
        <g id="checkmark" sketch:type="MSArtboardGroup" fill="#2B88D9">
            <path d="M9.55,13.6 C9.424,13.6 9.316,13.546 9.226,13.474 C7.894,12.124 6.418,10.936 4.816,9.928 C4.6,9.802 4.546,9.514 4.672,9.316 C4.816,9.1 5.086,9.028 5.302,9.172 C6.796,10.108 8.182,11.206 9.46,12.43 C12.124,8.02 14.842,4.51 18.226,1.126 C18.406,0.964 18.694,0.964 18.874,1.126 C19.036,1.306 19.036,1.594 18.874,1.774 C15.418,5.23 12.664,8.812 9.928,13.384 C9.874,13.492 9.748,13.582 9.604,13.6 L9.55,13.6 Z M5.05,17.2 C3.808,17.2 2.8,16.192 2.8,14.95 L2.8,5.05 C2.8,3.808 3.808,2.8 5.05,2.8 L14.05,2.8 C14.302,2.8 14.5,2.998 14.5,3.25 C14.5,3.502 14.302,3.7 14.05,3.7 L5.05,3.7 C4.312,3.7 3.7,4.312 3.7,5.05 L3.7,14.95 C3.7,15.688 4.312,16.3 5.05,16.3 L14.95,16.3 C15.688,16.3 16.3,15.688 16.3,14.95 L16.3,6.4 C16.3,6.148 16.498,5.95 16.75,5.95 C17.002,5.95 17.2,6.148 17.2,6.4 L17.2,14.95 C17.2,16.192 16.192,17.2 14.95,17.2 L5.05,17.2 Z" id="d" sketch:type="MSShapeGroup"></path>
        </g>
    </g>
</svg>