<svg class="shared" width="40px" height="40px" viewBox="0 0 20 20" version="1.1" xmlns="http://www.w3.org/2000/svg" xmlns:xlink="http://www.w3.org/1999/xlink">
  <g id="Web-svgs" stroke="none" stroke-width="1" fill="#2B88D9">
    <g id="shared-list" >
      <path d="M7.5,11 C5.34,11 4,7.8 4,5.5 C4,3.54 5.54,2 7.5,2 C9.46,2 11,3.54 11,5.5 C11,7.8 9.66,11 7.5,11 L7.5,11 Z M7.5,3 C6.1,3 5,4.1 5,5.5 C5,7.52 6.16,10 7.5,10 C8.84,10 10,7.52 10,5.5 C10,4.1 8.9,3 7.5,3 L7.5,3 Z M14.26,10.5 C12.56,10.5 11.5,8.58 11.5,6.8 C11.5,5.26 12.74,4 14.26,4 C15.78,4 17,5.26 17,6.8 C17,8.58 15.96,10.5 14.26,10.5 L14.26,10.5 Z M14.26,5 C13.3,5 12.5,5.8 12.5,6.8 C12.5,8.08 13.22,9.5 14.26,9.5 C15.28,9.5 16,8.08 16,6.8 C16,5.8 15.22,5 14.26,5 L14.26,5 Z M15.52,15 C15.24,15 15.02,14.8 15,14.52 C14.98,14.24 15.2,14.02 15.48,14 C16.72,13.94 17.54,13.66 17.94,13.48 L17.8,12.9 C17.74,12.56 17.5,12.3 17.2,12.16 L16.36,11.84 C16.08,11.72 15.82,11.54 15.62,11.3 C15.44,11.1 15.46,10.78 15.68,10.6 C15.88,10.42 16.2,10.46 16.38,10.66 C16.48,10.78 16.6,10.86 16.74,10.92 L17.56,11.24 C18.18,11.48 18.64,12.02 18.78,12.68 L18.98,13.64 C19.04,13.84 18.94,14.04 18.78,14.16 C18.74,14.2 17.66,14.9 15.52,15 L15.52,15 Z M7.5,17 C2.86,17 1.38,16.1 1.22,16 C1.06,15.9 0.98,15.7 1,15.5 L1.3,13.74 C1.46,12.74 2.2,11.94 3.18,11.7 L4.84,11.32 C4.96,11.28 5.06,11.22 5.14,11.14 C5.34,10.96 5.66,10.96 5.86,11.14 C6.06,11.34 6.04,11.66 5.86,11.86 C5.64,12.06 5.36,12.22 5.06,12.28 L3.42,12.68 C2.82,12.82 2.38,13.3 2.28,13.9 L2.06,15.3 C2.64,15.54 4.24,16 7.5,16 C10.76,16 12.36,15.54 12.94,15.3 L12.72,13.9 C12.62,13.3 12.18,12.82 11.58,12.68 L9.94,12.28 C9.64,12.22 9.36,12.06 9.14,11.86 C8.96,11.66 8.94,11.34 9.14,11.14 C9.34,10.96 9.66,10.96 9.86,11.14 C9.94,11.22 10.04,11.28 10.16,11.32 L11.82,11.7 C12.8,11.94 13.54,12.74 13.7,13.74 L14,15.5 C14.02,15.7 13.94,15.9 13.78,16 C13.62,16.1 12.14,17 7.5,17 L7.5,17 Z" id="L">
      </path>
    </g>
  </g>
</svg>